<svg
    width="32"
    height="32"
    viewBox="0 0 32 32"
    fill="none"
    xmlns="http://www.w3.org/2000/svg"
>
        <path
            fill-rule="evenodd"
            clip-rule="evenodd"
            d="M25.6257 8.25961C25.8686 8.00814 26.003 7.67134 26 7.32174C25.9969 6.97215 25.8567 6.63773 25.6095 6.39052C25.3623 6.14331 25.0279 6.00309 24.6783 6.00005C24.3287 5.99701 23.9919 6.1314 23.7404 6.37428L16.0164 14.0982L8.29239 6.37428C8.04092 6.1314 7.70411 5.99701 7.35452 6.00005C7.00492 6.00309 6.67051 6.14331 6.42329 6.39052C6.17608 6.63773 6.03586 6.97215 6.03282 7.32174C6.02978 7.67134 6.16418 8.00814 6.40705 8.25961L14.1311 15.9836L6.40705 23.7076C6.27971 23.8306 6.17813 23.9777 6.10825 24.1404C6.03837 24.303 6.00159 24.478 6.00005 24.655C5.99851 24.8321 6.03225 25.0076 6.09929 25.1715C6.16633 25.3354 6.26534 25.4842 6.39053 25.6094C6.51572 25.7346 6.66459 25.8336 6.82845 25.9007C6.99231 25.9677 7.16788 26.0014 7.34492 25.9999C7.52196 25.9984 7.69692 25.9616 7.85959 25.8917C8.02226 25.8218 8.16939 25.7203 8.29239 25.5929L16.0164 17.8689L23.7404 25.5929C23.9919 25.8358 24.3287 25.9702 24.6783 25.9671C25.0279 25.9641 25.3623 25.8239 25.6095 25.5767C25.8567 25.3295 25.9969 24.995 26 24.6454C26.003 24.2958 25.8686 23.959 25.6257 23.7076L17.9017 15.9836L25.6257 8.25961Z"
            fill="white"
        />
    </svg>
